<?xml version="1.0" standalone="no"?>
<!DOCTYPE svg PUBLIC "-//W3C//DTD SVG 20010904//EN"
 "http://www.w3.org/TR/2001/REC-SVG-20010904/DTD/svg10.dtd">
<svg version="1.0" xmlns="http://www.w3.org/2000/svg"
 width="225.000000pt" height="225.000000pt" viewBox="0 0 225.000000 225.000000"
 preserveAspectRatio="xMidYMid meet">

<g transform="translate(0.000000,225.000000) scale(0.100000,-0.100000)"
fill="#000000" stroke="none">
<path d="M991 2239 c-607 -71 -1050 -633 -981 -1247 51 -459 368 -840 805
-967 82 -23 101 -25 305 -25 201 0 224 2 301 24 191 56 346 149 489 295 536
549 386 1467 -295 1806 -129 64 -245 99 -378 114 -107 12 -139 12 -246 0z
m239 -29 c256 -29 483 -142 662 -328 100 -105 169 -205 219 -323 146 -338 120
-717 -70 -1025 -400 -646 -1291 -702 -1767 -111 -78 98 -174 286 -204 402
-101 390 9 795 292 1076 232 231 553 345 868 309z"/>
<path d="M1005 2149 c-177 -19 -356 -91 -507 -204 -179 -135 -302 -316 -375
-551 -26 -84 -27 -100 -27 -279 0 -163 3 -201 21 -267 85 -305 282 -544 558
-678 141 -69 230 -91 401 -97 154 -6 247 7 378 53 333 116 595 419 668 773 26
127 21 356 -10 473 -116 431 -466 733 -903 778 -56 5 -106 9 -113 9 -6 -1 -47
-5 -91 -10z m115 -104 c0 -8 -7 -15 -15 -15 -11 0 -15 -12 -15 -45 0 -38 -3
-45 -20 -45 -17 0 -20 7 -20 40 0 33 -3 40 -20 40 -22 0 -28 25 -7 33 6 3 31
6 55 6 31 1 42 -3 42 -14z m68 -42 c-2 -46 -7 -59 -20 -61 -15 -3 -18 5 -18
51 0 56 4 67 27 67 11 0 13 -14 11 -57z m120 31 c15 -10 22 -25 22 -48 0 -40
-15 -56 -54 -56 -59 0 -87 59 -46 100 24 24 48 25 78 4z m-309 -43 c25 -42 27
-50 14 -55 -8 -4 -21 -2 -28 4 -13 11 -45 3 -45 -11 0 -5 -8 -9 -19 -9 -17 0
-18 4 -9 48 14 68 15 72 37 72 12 0 30 -17 50 -49z m421 -4 c11 -31 12 -31 21
-9 9 24 24 29 34 12 7 -11 -25 -110 -34 -110 -16 1 -33 20 -41 46 -8 28 -9 28
-15 7 -4 -13 -15 -23 -26 -23 -11 0 -19 2 -19 4 0 3 20 61 35 103 7 21 33 3
45 -30z m-545 -18 c22 -66 9 -83 -36 -50 l-31 23 7 -31 c5 -25 3 -31 -10 -31
-8 0 -26 -7 -39 -15 -20 -13 -25 -13 -42 0 -27 21 -36 18 -23 -6 9 -17 8 -23
-2 -30 -22 -14 -24 -12 -49 42 -24 51 -24 51 -5 65 45 33 103 23 90 -15 -5
-16 31 -48 42 -37 3 3 -2 26 -11 52 -19 57 -19 51 0 58 9 3 29 -3 45 -15 l29
-20 -6 30 c-5 24 -3 31 9 31 10 0 22 -19 32 -51z m694 -18 c10 -7 12 -23 6
-70 -6 -56 -8 -60 -26 -50 -11 5 -17 14 -14 19 6 10 -31 24 -43 16 -4 -2 -14
0 -22 5 -12 8 -6 17 30 49 49 44 49 44 69 31z m80 -101 l-24 -32 22 -18 c18
-14 20 -20 10 -29 -10 -8 -22 -3 -47 18 l-34 28 34 47 c29 40 36 45 48 32 12
-12 11 -18 -9 -46z m-1045 41 c4 -5 -6 -19 -21 -30 -19 -13 -23 -20 -12 -21 8
0 20 5 26 11 6 6 17 8 23 4 9 -6 6 -13 -11 -26 -31 -23 -18 -36 14 -14 18 11
27 13 32 5 4 -6 5 -13 4 -14 -2 -1 -20 -15 -40 -29 l-36 -27 -31 44 c-18 24
-32 48 -32 53 0 8 59 51 72 52 4 1 9 -3 12 -8z m-101 -78 c4 -3 2 -12 -5 -20
-9 -11 -5 -20 17 -43 22 -23 26 -33 17 -42 -9 -9 -19 -5 -42 17 -23 22 -32 26
-43 17 -10 -9 -16 -9 -25 0 -9 9 -2 20 26 44 39 35 45 38 55 27z m1347 -78 c0
-7 -13 -23 -30 -35 -18 -13 -27 -26 -23 -35 7 -21 17 -19 51 10 26 21 31 23
42 10 10 -12 7 -19 -17 -39 -35 -32 -77 -33 -97 -4 -24 34 -19 54 21 87 36 30
53 32 53 6z m-767 -2 c25 -29 30 -68 13 -101 -26 -50 -82 -58 -115 -16 -43 54
-11 134 53 134 19 0 40 -8 49 -17z m290 -66 l66 -74 -177 -176 -177 -177 -163
0 -162 0 267 250 c148 137 271 249 274 250 4 0 36 -33 72 -73z m-932 23 c46
-37 43 -60 -9 -60 -35 0 -35 0 -17 -20 14 -15 16 -23 7 -32 -8 -8 -23 0 -56
27 -38 31 -44 40 -34 52 8 10 23 13 48 9 l35 -5 -23 19 c-22 19 -23 40 0 40 5
0 27 -14 49 -30z m1495 -74 c3 -8 -2 -28 -10 -45 l-16 -31 26 12 c21 10 27 9
34 -3 7 -11 -3 -20 -43 -41 -61 -30 -79 -20 -52 32 17 32 14 36 -15 20 -13 -7
-21 -6 -30 5 -9 11 -3 18 37 39 57 30 62 30 69 12z m-972 -78 l35 -56 -130
-120 -130 -119 -107 -6 c-59 -3 -109 -3 -112 0 -3 3 83 90 190 193 149 144
198 186 206 177 7 -7 28 -37 48 -69z m-608 36 c46 -27 54 -41 30 -50 -19 -7
-104 48 -99 64 7 18 19 15 69 -14z m1147 -52 l48 -56 -113 -113 -113 -113
-110 0 -110 1 170 169 c94 93 172 169 175 169 3 0 27 -26 53 -57z m501 -37 c4
-10 -6 -20 -31 -30 -66 -28 -83 -29 -83 -8 0 13 13 24 43 35 54 21 64 21 71 3z
m-1699 -27 c56 -25 39 -110 -24 -116 -63 -6 -96 63 -51 108 23 23 39 25 75 8z
m1397 -160 l50 -58 -198 0 -199 0 105 106 105 105 43 -48 c24 -26 66 -74 94
-105z m310 105 c-61 -44 -61 -42 -9 -43 36 0 47 -4 47 -15 0 -13 -11 -15 -62
-13 -57 3 -63 5 -63 25 0 13 16 34 45 57 39 31 46 33 52 18 4 -10 0 -22 -10
-29z m-1734 -99 c45 -31 14 -114 -43 -114 -14 0 -34 9 -45 20 -58 58 20 142
88 94z m1782 -23 c0 -10 3 -33 6 -50 5 -24 3 -31 -10 -31 -10 0 -16 9 -16 25
0 14 -5 25 -11 25 -7 0 -9 -10 -5 -25 5 -18 2 -25 -8 -25 -8 0 -16 10 -18 22
-5 33 -23 32 -23 -2 0 -46 -19 -40 -27 9 -4 25 -5 47 -2 50 2 3 26 8 52 12 26
3 50 7 55 8 4 0 7 -7 7 -18z m-1870 -121 c0 -17 7 -20 45 -20 38 0 45 -3 45
-20 0 -17 -7 -20 -45 -20 -38 0 -45 -3 -45 -20 0 -11 -7 -20 -15 -20 -12 0
-15 13 -15 60 0 47 3 60 15 60 8 0 15 -9 15 -20z m1880 -40 c0 -54 -17 -73
-49 -53 -11 8 -24 7 -43 -3 -25 -13 -28 -13 -28 3 0 9 12 27 28 40 l27 22 -27
1 c-17 0 -28 6 -28 13 0 23 11 27 67 27 l53 0 0 -50z m-1426 -63 c16 -45 31
-88 34 -94 3 -9 -6 -13 -26 -13 -17 0 -32 6 -36 15 -3 9 -18 15 -35 15 -16 0
-31 -6 -35 -15 -5 -14 -47 -21 -58 -9 -3 3 6 38 21 77 15 40 31 80 34 90 4 11
17 17 39 17 32 0 34 -2 62 -83z m116 13 l0 -70 40 0 c36 0 40 -2 40 -25 0 -24
-2 -25 -70 -25 l-70 0 0 95 0 95 30 0 30 0 0 -70z m254 -13 c16 -45 31 -88 34
-94 3 -9 -6 -13 -26 -13 -17 0 -32 6 -36 15 -3 9 -18 15 -36 15 -18 0 -33 -6
-36 -15 -6 -14 -45 -21 -56 -9 -3 3 6 38 21 77 15 40 31 80 34 90 4 11 17 17
39 17 32 0 34 -2 62 -83z m334 61 c-2 -17 -11 -24 -30 -26 -28 -3 -28 -4 -28
-73 l0 -69 -30 0 -30 0 0 69 c0 69 0 70 -27 73 -20 2 -29 9 -31 26 -3 21 -1
22 88 22 89 0 91 -1 88 -22z m172 -3 c28 -29 31 -92 6 -129 -30 -46 -131 -43
-156 5 -18 33 -12 101 12 126 31 33 105 33 138 -2z m199 15 c48 -25 51 -123 4
-160 -63 -49 -153 -3 -153 80 0 56 34 90 90 90 23 0 49 -4 59 -10z m-1475 -86
c11 -29 7 -64 -9 -64 -11 0 -15 11 -15 40 0 40 13 53 24 24z m926 -19 c0 -12
-13 -15 -55 -15 -42 0 -55 3 -55 15 0 12 13 15 55 15 42 0 55 -3 55 -15z m820
2 c0 -7 -5 -18 -11 -24 -6 -6 -9 -17 -7 -25 3 -8 12 0 22 20 23 45 60 42 64
-6 3 -32 -11 -62 -29 -62 -5 0 -9 7 -9 17 0 15 -1 15 -19 -1 -37 -34 -76 18
-52 70 11 25 41 33 41 11z m-1690 -76 c0 -11 -5 -21 -12 -23 -8 -3 -4 -17 12
-43 l23 -38 -64 7 c-94 11 -105 38 -31 84 56 36 72 39 72 13z m1696 -42 c32
-8 44 -16 44 -30 0 -22 -2 -22 -55 -8 -63 16 -65 17 -59 34 7 18 12 18 70 4z
m-1218 -69 l42 0 0 -40 c0 -22 9 -63 20 -92 11 -29 20 -56 20 -59 0 -7 -115
-59 -129 -59 -29 0 -191 211 -191 248 0 13 14 14 98 9 53 -4 116 -7 140 -7z
m-445 -45 c18 -51 18 -51 -57 -75 -32 -10 -40 -10 -47 1 -14 22 -11 25 32 38
38 11 41 15 36 41 -6 27 -1 40 14 40 4 0 14 -20 22 -45z m783 14 c-3 -17 -6
-50 -6 -73 l0 -42 -82 -11 c-46 -6 -91 -14 -101 -18 -13 -6 -21 2 -37 38 -11
25 -23 66 -26 91 l-7 46 133 0 133 0 -7 -31z m279 -16 c-4 -27 -15 -68 -26
-92 -15 -34 -23 -42 -36 -36 -10 4 -55 12 -100 18 -73 10 -83 14 -83 32 0 11
-3 44 -6 73 l-7 52 133 0 132 0 -7 -47z m325 39 c0 -14 -79 -132 -122 -184
-21 -26 -48 -50 -60 -54 -12 -4 -44 4 -83 21 l-62 26 23 57 c13 31 24 76 24
100 l0 42 140 0 c77 0 140 -4 140 -8z m229 -7 c36 -12 41 -12 41 0 0 8 9 15
20 15 20 0 20 -1 -15 -97 -7 -20 -33 -4 -28 17 4 15 -3 21 -35 31 -31 9 -38
15 -35 30 6 23 1 22 52 4z m-1588 -107 c1 -7 0 -23 -1 -36 -1 -16 5 -25 18
-29 18 -4 38 -31 30 -38 -2 -1 -31 -5 -65 -8 -57 -6 -64 -5 -74 14 -9 19 -5
27 32 65 45 46 58 53 60 32z m1571 -8 c36 0 46 -3 42 -14 -3 -8 -14 -16 -26
-19 -15 -4 -18 -11 -13 -26 3 -11 2 -28 -3 -38 -8 -14 -13 -10 -31 24 -11 23
-30 44 -41 48 -17 5 -18 10 -9 27 8 15 14 17 22 9 6 -6 32 -11 59 -11z m-826
-127 c-3 -42 -6 -93 -6 -115 0 -36 -1 -38 -32 -38 -31 0 -36 5 -86 96 -30 52
-52 98 -49 100 6 7 127 32 156 33 24 1 24 1 17 -76z m177 56 c26 -6 47 -12 47
-14 0 -1 -24 -44 -53 -96 -45 -80 -57 -94 -84 -100 l-30 -6 -7 66 c-3 36 -6
90 -6 119 l0 54 43 -7 c23 -3 63 -11 90 -16z m-349 -110 c26 -44 45 -83 42
-86 -15 -15 -216 93 -216 115 0 7 96 49 115 51 6 1 32 -35 59 -80z m511 56
l57 -26 -39 -31 c-46 -37 -156 -91 -177 -86 -11 2 -2 24 36 86 28 45 54 82 58
82 4 0 33 -11 65 -25z m-869 -165 c18 -1 18 -1 1 -14 -11 -9 -15 -20 -11 -31
6 -15 4 -16 -13 -7 -14 8 -23 8 -31 0 -9 -9 -12 -7 -12 8 0 11 -5 25 -12 32
-9 9 -7 12 10 12 14 0 22 6 22 18 1 16 1 16 14 0 7 -10 22 -18 32 -18z m1130
-10 c15 0 16 -2 5 -9 -8 -5 -12 -18 -8 -30 4 -18 2 -19 -15 -10 -14 8 -24 7
-36 -3 -14 -11 -15 -11 -9 6 5 12 1 23 -10 32 -17 12 -16 13 5 14 14 0 22 6
22 18 1 16 1 16 14 0 7 -10 22 -18 32 -18z m-768 -192 c-2 -60 -6 -73 -20 -76
-15 -3 -18 4 -18 47 0 41 -3 49 -15 45 -23 -9 -18 15 8 37 41 34 48 26 45 -53z
m126 56 c21 -21 21 -97 0 -118 -20 -20 -58 -21 -74 -1 -17 20 -4 32 19 18 14
-9 21 -9 30 0 17 17 13 26 -9 20 -11 -3 -27 0 -35 7 -18 15 -20 61 -3 78 17
17 54 15 72 -4z m120 -3 c27 -29 19 -112 -12 -127 -28 -14 -58 -8 -67 13 -8
23 3 29 26 15 20 -13 39 -9 39 9 0 5 -10 9 -23 9 -45 0 -64 52 -31 84 21 21
47 20 68 -3z m134 -13 c4 -20 -24 -25 -30 -6 -2 6 -10 8 -16 4 -20 -12 -13
-26 13 -26 23 0 45 -24 45 -49 0 -16 -38 -51 -55 -51 -47 0 -72 82 -39 128 20
28 77 28 82 0z"/>
<path d="M1257 2013 c-4 -3 -7 -17 -7 -30 0 -26 34 -33 44 -8 11 30 -17 59
-37 38z"/>
<path d="M950 1985 c0 -8 4 -15 10 -15 5 0 7 7 4 15 -4 8 -8 15 -10 15 -2 0
-4 -7 -4 -15z"/>
<path d="M675 1921 c-6 -11 9 -23 19 -14 9 9 7 23 -3 23 -6 0 -12 -4 -16 -9z"/>
<path d="M1530 1905 c-7 -9 -8 -15 -2 -15 5 0 12 7 16 15 3 8 4 15 2 15 -2 0
-9 -7 -16 -15z"/>
<path d="M244 1415 c-8 -21 4 -35 31 -35 32 0 42 20 20 37 -24 17 -44 17 -51
-2z"/>
<path d="M205 1270 c-9 -15 14 -40 37 -40 23 0 36 29 17 41 -19 12 -46 11 -54
-1z"/>
<path d="M2030 1114 c0 -8 5 -12 10 -9 6 3 10 10 10 16 0 5 -4 9 -10 9 -5 0
-10 -7 -10 -16z"/>
<path d="M570 1050 c0 -11 6 -20 14 -20 9 0 12 7 9 20 -3 11 -9 20 -14 20 -5
0 -9 -9 -9 -20z"/>
<path d="M940 1050 c0 -11 6 -20 14 -20 9 0 12 7 9 20 -3 11 -9 20 -14 20 -5
0 -9 -9 -9 -20z"/>
<path d="M1432 1091 c-8 -5 -12 -23 -10 -47 2 -31 7 -40 25 -42 39 -6 55 67
19 90 -14 10 -18 10 -34 -1z"/>
<path d="M1641 1086 c-7 -8 -11 -30 -9 -48 2 -28 7 -34 30 -36 22 -3 29 2 34
23 13 52 -27 95 -55 61z"/>
<path d="M2020 980 c0 -5 5 -10 10 -10 6 0 10 5 10 10 0 6 -4 10 -10 10 -5 0
-10 -4 -10 -10z"/>
<path d="M230 900 c-12 -8 -11 -10 8 -10 12 0 22 5 22 10 0 13 -11 13 -30 0z"/>
<path d="M315 650 c-3 -5 1 -10 9 -10 9 0 16 5 16 10 0 6 -4 10 -9 10 -6 0
-13 -4 -16 -10z"/>
<path d="M1012 238 c2 -12 10 -23 18 -23 22 0 19 39 -3 43 -15 3 -18 -1 -15
-20z"/>
<path d="M1133 244 c-8 -21 13 -42 28 -27 13 13 5 43 -11 43 -6 0 -13 -7 -17
-16z"/>
<path d="M1260 185 c0 -16 6 -25 15 -25 9 0 15 9 15 25 0 16 -6 25 -15 25 -9
0 -15 -9 -15 -25z"/>
</g>
</svg>
